<svg width="100%" height="100%" viewBox="0 0 230 300" fill="none" xmlns="http://www.w3.org/2000/svg">
<path d="M107.006 7.29272C107.284 7.52676 107.629 7.81823 108.018 8.12785C107.427 10.5823 106.66 13.928 105.819 18.0074C103.952 27.0642 101.712 39.7695 100.219 54.3901C97.2496 83.4481 97.1382 120.848 109.413 152.188C120.638 180.848 120.75 215.948 117.844 244.39C116.4 258.52 114.233 270.814 112.428 279.57C111.526 283.945 110.717 287.428 110.135 289.806C110.076 290.048 110.02 290.278 109.965 290.496C109.847 290.567 109.736 290.637 109.632 290.703C108.598 291.364 107.63 292.181 107.007 292.707C106.958 292.748 106.912 292.787 106.868 292.825C106.449 293.177 106.155 293.418 105.936 293.588C45.977 288.097 6 227.495 6 150C6 72.5054 45.977 11.9034 105.936 6.41205C106.155 6.58177 106.449 6.82313 106.868 7.1755C106.912 7.21268 106.958 7.25182 107.006 7.29272ZM119.865 10.194C119.924 9.95236 119.98 9.72212 120.035 9.50356C120.153 9.43258 120.264 9.36321 120.368 9.29657C121.402 8.63603 122.37 7.81911 122.994 7.29273C123.042 7.25183 123.088 7.21268 123.132 7.1755C123.551 6.82313 123.845 6.58177 124.064 6.41205C184.023 11.9034 224 72.5054 224 150C224 227.495 184.023 288.097 124.064 293.588C123.845 293.418 123.551 293.177 123.132 292.825C123.088 292.787 123.042 292.748 122.993 292.707C122.716 292.473 122.371 292.182 121.982 291.872C122.573 289.418 123.34 286.072 124.181 281.993C126.048 272.936 128.288 260.231 129.781 245.61C132.75 216.552 132.862 179.152 120.587 147.812C109.362 119.152 109.25 84.052 112.156 55.6099C113.6 41.4805 115.767 29.1858 117.572 20.4301C118.474 16.0553 119.283 12.572 119.865 10.194ZM124.545 6.07973C124.544 6.08047 124.532 6.08791 124.507 6.09981C124.533 6.08495 124.545 6.079 124.545 6.07973ZM105.455 293.92C105.456 293.919 105.469 293.912 105.493 293.9C105.467 293.915 105.455 293.921 105.455 293.92ZM124.507 293.9C124.532 293.912 124.544 293.92 124.545 293.92C124.545 293.921 124.533 293.915 124.507 293.9ZM105.493 6.09983C105.468 6.08791 105.456 6.08046 105.455 6.07973C105.455 6.079 105.467 6.08496 105.493 6.09983Z" fill="#724109" stroke="black" stroke-width="12"/>
<path d="M99.5003 18.5C99.5003 18.5 82.5 101 103 150C123.5 199 106.5 279 106.5 279" stroke="#8E5614" stroke-width="12" stroke-linecap="round" stroke-linejoin="round"/>
<path d="M123.5 21.5C123.5 21.5 102.529 92 124.5 146.5C146.471 201 130.5 281 130.5 281" stroke="#42290B" stroke-width="12" stroke-linecap="round" stroke-linejoin="round"/>
</svg>
