<?xml version="1.0" encoding="utf-8"?>
<svg width="100%" height="100%" viewBox="0 0 745 927" fill="none" xmlns="http://www.w3.org/2000/svg">
<path d="M422 474C421.616 470.926 416.826 470.601 414.556 470.222C407.405 469.03 400.368 467.465 393.222 466.222C385.391 464.86 380.363 468.142 373.056 469.056C358.52 470.872 342.515 474.455 328.556 479C302.664 487.43 274.605 479.569 248.222 483.222C238.527 484.565 228.807 486.666 219 488C205.281 489.866 191.236 491.119 177.444 492.222C167.015 493.057 156.684 493 146.222 493C139.059 493 130.568 491.76 123.444 493.056C114.23 494.731 106.627 499 97.1111 499C94.9373 499 93.3028 498 91.5 498C89.7451 498 84.8253 494.93 90 497" stroke="#C7C5C0" stroke-width="19" stroke-linecap="round"/>
<path d="M82 456C82 462.26 87.667 468.005 88 474C88.3362 480.051 86.8657 488.243 83.5556 493.444C79.9757 499.07 82.6695 504.405 85.5 509.5C88.7305 515.315 97.7708 507 103 507C106.346 507 97.9127 508.974 96.2222 510C94.2087 511.223 85.922 513.403 92.2222 511.222C93.8339 510.664 99.8315 506.948 101 508.667C102.385 510.703 101.242 513.04 102.222 515C103.529 517.614 112.061 516 114.167 516C138.389 516 162.611 516 186.833 516C244.556 516 302.278 516 360 516C380.315 516 400.63 516 420.944 516C422.868 516 429.498 516.958 429.889 514.611C430.658 509.998 430 504.737 430 500C430 492.167 430 484.333 430 476.5C430 470.5 430 464.5 430 458.5C430 456.111 433.054 456 431.111 456C428.222 456 425.333 456 422.444 456C417.296 456 412.148 456 407 456C383.333 456 359.667 456 336 456C270.519 456 205.037 456 139.556 456C128.593 456 117.63 456 106.667 456C100.611 456 94.5556 456 88.5 456C86.0763 456 87.3456 445.632 86.5 448C85.6074 450.499 86 453.381 86 456C86 463.841 92 468.067 92 474.5C92 482.094 103.05 479 108.944 479C122.63 479 136.315 479 150 479C222.907 479 295.815 479 368.722 479C386.481 479 404.241 479 422 479C425.286 479 427.857 479 423 479C422.6 479 419.576 479 421 479C424.51 479 423.088 464.906 423 462C422.874 457.839 399.941 460 395 460C376.463 460 357.926 460 339.389 460C265 460 190.611 460 116.222 460C110.148 460 104.074 460 98 460C97.5784 460 102.51 460 104 460C107.794 460 104.213 484.275 104 487.778C103.968 488.299 104.456 495.733 102.778 494.222C102.442 493.92 101.111 493.815 101.111 494.5C101.111 499.879 196.724 497 209.833 497C269.481 497 329.13 497 388.778 497C398.852 497 408.926 497 419 497C421.47 497 421.878 491.663 420 491C418.401 490.436 415.82 491.389 414.444 492C413.673 492.343 408.777 493.172 410.222 494.778C411.456 496.149 413.229 496.77 414.944 497.056C421.544 498.155 428.452 503.615 435 504C439.986 504.293 444.289 510 449.444 510C455.767 510 462.755 510.837 469 509.944C471.483 509.59 473.66 506 476.5 506C479.052 506 481.698 504.056 484 502.778C487.028 501.095 491 493.875 491 490.5C491 488.893 491.797 484.037 490.5 483C489.516 482.213 486.154 478.309 486 477C485.345 471.43 481.988 468.426 479.222 464C475.591 458.189 464.485 461.269 459.5 458.5C456.905 457.059 451.941 458 449 458C444.209 458 445 463.573 445 467.556C445 474.938 446 482.261 446 489.5C446 496.907 454.007 495 459.5 495C462.667 495 465.833 495 469 495C473.273 495 472 491.795 472 488.222C472 482.856 469.44 476.265 463.5 474.944C459.808 474.124 457.629 472.839 457.056 478C456.585 482.233 457 486.737 457 491" stroke="#C7C5C0" stroke-width="19" stroke-linecap="round"/>
<path d="M397 254C402.78 254 408.451 257 414 257C415.768 257 428.276 256.789 427.778 258C426.452 261.219 422.926 259.603 420.056 260.5C414.828 262.134 417.598 261.512 421 260C427.05 257.311 434.964 257 441.5 257C447.44 257 443.873 258.381 439.778 260C437.177 261.028 433.637 262 430.944 262C426.63 262 422.315 262 418 262C416.762 262 409.594 261.966 414.333 261.222C420.28 260.289 427.321 262.528 433 260.5C435.174 259.723 437.697 258.256 440 258C446.834 257.241 454.147 256.887 460.556 255.056C464.698 253.872 458.221 258.804 458 259C455.687 261.056 454.023 260.328 451.444 261.5C445.672 264.124 453.117 261.529 455.222 260.778C459.12 259.386 462.867 257.576 466.778 256.222C469.52 255.273 473.836 251.111 476.389 251.111C481.15 251.111 467.875 255.455 464 258.222C458.057 262.467 450.032 265.299 442.611 265.944C437.805 266.362 437.669 268.995 442.778 266C448.562 262.609 456.11 260.36 462.556 258.556C470.935 256.209 476.021 252.708 483.222 248C485.532 246.49 490.655 245.91 492 243.556C492.641 242.434 498.405 239.382 499.778 238.778C504.831 236.554 510.114 230.855 514.5 227.444C517.364 225.217 519.951 222.016 523 220.222C524.127 219.559 528.38 216.529 529 215.444C530.36 213.064 530.205 211.29 531.222 209C532.036 207.168 534 204.636 534 202.611C534 200.659 530.771 204.811 529.222 206C527.731 207.145 526.312 208.401 524.778 209.444C521.172 211.896 517.651 215.329 513.611 216.944C509.033 218.776 523.452 212.38 525.222 207.778C527.239 202.534 531.053 198.01 534 193.222C536.155 189.72 541.084 184.373 541.944 180.5C544.409 169.411 545 155.582 545 144.222C545 140.603 546.025 133.031 543.778 130.222C541.496 127.37 539.633 121.233 538.944 117.444C538.4 114.452 538.371 104.749 535.556 103.944C533.313 103.304 531.119 92.1494 531 90C530.784 86.1138 523.53 78.1831 520 76.2222C515.663 73.8128 512.838 67.5104 508.444 65C506.211 63.7239 506.268 61.4228 504 60.2222C502.465 59.4098 498.862 56.751 497.556 55.4444C495.118 53.007 489.542 48 486 48" stroke="#F04141" stroke-width="19" stroke-linecap="round"/>
<path d="M487 429C488.743 429 491.389 429.494 493 428.778C498.298 426.423 488.8 427.783 487.444 428C481.641 428.929 476.052 433 470.5 433C466.8 433 459.444 434 459.444 434H473.556C473.556 434 466.728 435.87 463.222 436C458.779 436.165 459.516 437.198 464.444 435.556C467.586 434.509 471.284 435 474.556 435C482.28 435 475.675 434 471.5 434C467.786 434 463.701 433.527 460 434.056C459.021 434.195 452.638 436.861 455 437C462.091 437.417 467.502 434.3 474 433" stroke="#9A734F" stroke-width="19" stroke-linecap="round"/>
<path d="M482 439C483.144 439.127 486.971 440.496 487.778 441.222C489.917 443.148 492.137 443.442 495 444.556C499.749 446.402 503.807 449.294 505.778 454.222C507.443 458.386 510 462.19 510 467C510 472.427 513 477.232 513 482.444C513 492.23 512.422 499.712 507.556 508.056C504.619 513.09 504.075 518.699 500 523C496.606 526.582 491.07 531 486 531" stroke="#9A734F" stroke-width="19" stroke-linecap="round"/>
<path d="M488 524C484.874 524 480.46 523.18 477.556 524.5C475.007 525.658 471.308 527 468.5 527C465.991 527 463.579 528.871 461 529C458.698 529.115 454.456 528.1 452.778 529.778C447.925 534.63 455.82 537 459.444 537C464.687 537 469.477 536 474.556 536C480.402 536 484.075 533.685 489 531.222C493.171 529.137 497.431 528.294 501.444 526C505.247 523.827 508.753 518.193 509 514C509.376 507.613 511.069 508.465 516 506" stroke="#9A734F" stroke-width="19" stroke-linecap="round"/>
<path d="M517 511C517 503.732 516 496.847 516 489.5C516 484.243 514.226 473.716 517.222 469.222C520.208 464.743 518 456.348 518 451.5C518 447.582 516.419 433.79 520 432" stroke="#9A734F" stroke-width="19" stroke-linecap="round"/>
<path d="M511 454C511 446.662 507.519 443.77 505.778 437C504.69 432.769 501.932 434 498 434C492.751 434 487.677 433 482.5 433C480.871 433 469.344 429.264 471.556 428C477.289 424.724 480.083 418.736 486 415.778C495.94 410.808 504.3 401.162 514.556 396.5C519.64 394.189 526.049 391.659 530.611 388.5C535.957 384.799 544.591 380.602 551 379" stroke="#9A734F" stroke-width="19" stroke-linecap="round"/>
<path d="M504 394C504.499 389.506 514.717 387.532 517.778 384.778C522.327 380.683 532.106 381.121 537 377C539.047 375.277 543.177 375.122 545.778 374.222C548.657 373.226 552.197 371.179 555 369.778C561.106 366.725 566.021 367 573 367C578.316 367 585.453 365.815 590 368.222C592.916 369.766 596.043 370.744 599 372.222C600.993 373.219 604.1 373.002 605.778 374.222C607.334 375.354 608.873 374.721 609.778 376.778C610.286 377.932 611.475 379.844 612.222 380.778C612.974 381.717 615.877 385.018 616 386C616.256 388.048 618.307 389.898 619.778 391.222C621.489 392.762 621.747 395.12 623 397" stroke="#9A734F" stroke-width="19" stroke-linecap="round"/>
<path d="M520 437C520.487 432.615 530.991 425.481 534.778 423C539.376 419.988 545.725 416.39 551 414.778C564.839 410.549 576.325 405 591 405C593.733 405 597.185 404.064 592.556 402.778C587.526 401.381 583.277 402.479 578.389 404C564.821 408.221 551.861 412.892 538.778 418.222C531.994 420.986 525.899 425.031 518.778 427.222C516.725 427.854 505.594 427.666 511.611 423.5C524.518 414.565 539.313 407.749 551.5 398C553.587 396.331 554.035 395.296 550.889 396C542.946 397.777 535.264 400.372 527.722 403.444C522.953 405.387 518.741 409.317 514 411.556C508.028 414.376 501.383 413.645 495.222 415.778C495.002 415.854 501.066 415.041 503 414C509.223 410.649 515.538 406.928 522 404.056C530.064 400.472 537.987 396.812 546.444 394.444C550.776 393.232 554.582 390.882 559 389.778C562.849 388.816 566.074 387.827 569.778 386.222C572.656 384.975 574.967 383.479 577.556 382C581.198 379.918 576.648 387.476 576 388.222C568.451 396.911 563.908 396.804 556 391.222C552.99 389.097 562.437 381.128 565 381C571.395 380.68 577.688 383.354 584 384.056C594.623 385.236 588.844 401.592 583.111 405.278C580.904 406.697 583.018 396.096 583.667 395C586.053 390.965 590.758 385.251 595.444 383.778C598.046 382.96 600.652 380.763 603.056 383.167C607.46 387.572 609.292 394.271 610.222 400.222C610.796 403.896 612.439 407.463 612.944 411C613.146 412.409 612.205 413.22 611.444 411.556C610.531 409.557 610.665 405.756 611.167 403.667C614.086 391.504 627.253 406.015 627.889 412.056C628.135 414.39 629.49 423.851 627.778 425.778C627.44 426.157 624.638 423.151 623.778 423.056C616.479 422.245 608.638 424.213 601.444 422.5C599.258 421.979 595.966 422.761 594 421.778C591.536 420.546 590.928 420.154 588 420C585.83 419.886 580.976 417.61 579 416.778C575.3 415.22 572.456 415 568.5 415C561.797 415 557.321 410 550 410" stroke="#9A734F" stroke-width="19" stroke-linecap="round"/>
<path d="M594 405C594.508 409.068 599.782 414.89 601.556 418.944C603.108 422.493 604 425.526 604 429.444C604 435.444 604 441.444 604 447.444C604 451.295 602.192 447.133 601.611 445.389C600.201 441.158 600.166 436.757 598.5 432.5C597.756 430.598 597.448 428.639 596.778 426.778C596.316 425.495 593.542 424.012 594.222 426.222C595.002 428.756 596.432 431.357 597.944 433.5C599.861 436.216 599.814 440.234 600.5 443.389C601.389 447.48 603.916 451.01 604.778 455.222C606.011 461.25 606.871 469.447 610.778 474.222C615.494 479.986 615.345 488.965 617.778 495.778C620.794 504.223 628.889 529.245 628.889 520.278C628.889 514.487 627.06 508.579 627 502.667C626.938 496.571 626.63 490.292 627.222 484.222C628.148 474.73 628.796 465.05 626 455.778C623.402 447.165 617.638 440.349 613.556 432.556C612.086 429.75 608.695 418.994 610.611 427.722C612.174 434.844 614.865 441.528 616 448.778C617.069 455.605 617.728 461.979 620 468.556C622.32 475.272 627 480.935 627 488.444C627 498.457 634.451 482.18 635.778 480C638.75 475.117 641 471.395 641 465.778C641 456.213 636.11 449.206 633.222 440.222C632.026 436.502 632.098 431.96 630.5 428.444C630.06 427.477 629.181 424.111 631.056 424.111C633.387 424.111 634.407 427.921 635.5 429.5C639.8 435.711 639.409 444.59 640.944 451.5C642.513 458.559 643.946 465.637 645.778 472.556C648.203 481.718 652.714 491.612 654.056 501C654.334 502.951 655.992 505.118 657 506.778C658.483 509.22 658.43 512.152 659.444 514.778C660.94 518.65 664.07 520.585 665.778 524C667.596 527.636 669.503 531.394 671.5 534.944C672.156 536.11 674.975 543.833 672.778 540.333C668.789 533.98 668.348 529.654 666.5 523C665.311 518.719 663.524 513.948 663.056 509.5C662.149 500.888 659.838 492.133 657.944 483.611C657.678 482.413 653.914 480.235 653 479.778C650.499 478.527 646.952 475.962 644.778 474.222C640.915 471.132 638.354 474.466 638.056 478.5C637.079 491.682 642.909 505.013 646.222 517.556C648.677 526.85 652 536.152 652 545.944C652 548.241 652 550.537 652 552.833C652 553.845 651.153 550.995 650.778 550.056C648.695 544.848 646.263 539.789 644.111 534.611C641.724 528.868 640.593 523.07 638.778 517.222C637.318 512.519 638.186 522.399 638.222 522.889C638.897 531.955 640.653 540.785 643 549.556C644.866 556.527 644.516 549.396 643.778 546.333C641.873 538.433 638.721 530.885 636.056 523.222C635.576 521.843 632.67 513.698 632 519.389C631.071 527.289 631.169 534.496 632.444 542.333C632.579 543.162 633.552 553.052 634.444 551.778C635.525 550.234 634.518 539.408 633.778 539.778C631.424 540.955 624.86 532.32 626.556 534.5C628.576 537.098 628.313 540.444 630 543.222C631.522 545.73 632.35 548.67 633.222 551.444C634.179 554.488 637.192 556.477 638.778 559.222C643.433 567.279 643.054 577.138 646.222 585.778C648.551 592.129 659.991 608.966 657.389 602.722C654.35 595.428 651.125 588.345 648.056 581.056C644.115 571.696 643.255 561.316 637.889 552.5C635.683 548.877 631.941 546.628 630.222 543C628.701 539.789 629.103 537.805 626.778 535.222C625.426 533.72 625.067 531.956 623.611 530.5C618.588 525.477 635.477 538.477 640.5 543.5C645.361 548.361 649.692 550.02 652 556.222C653.743 560.906 653.424 561.475 658 563" stroke="#9A734F" stroke-width="19" stroke-linecap="round"/>
<path d="M639 522C639.261 524.349 642.319 526.398 643.556 528.278C647.903 534.886 651.015 542.825 653 550.444C655.289 559.23 656.644 568.257 659.056 577C660.884 583.628 663.882 590.593 664.889 597.389C665.3 600.165 665.915 603.201 666 606C666.083 608.734 666 599.965 666 598.778C666 586.433 665 574.155 665 561.778C665 553.971 667 530.638 667 538.444C667 552.376 668.47 565.606 666.556 579.556C665.716 585.671 666.242 600.156 658 600C652.648 599.899 645.36 597.811 643 592.5C640.537 586.958 638.952 581.856 637 576C636.61 574.829 632.892 562.046 634.167 561.833C636.427 561.457 642.735 573.389 643.556 575C647.455 582.654 649.491 590.392 651 598.778C654.664 619.135 659.418 639.589 670.611 657C672.148 659.39 675.434 659.791 677.222 661.778C679.918 664.773 682.183 668.153 684.5 671.5C688.486 677.258 689.125 686.048 693.556 691C698.316 696.32 702.901 703.526 705.778 710C707.152 713.092 715.524 729.679 714.944 717.222C714.278 702.891 714.782 686.645 711 672.778C709.014 665.496 706.825 658.246 705 650.944C700.432 632.671 697.884 613.862 691.778 596.222C685.963 579.425 680.359 562.058 673 545.5C670.37 539.584 669.295 539.299 671.056 547.222C674.998 564.965 675.653 583.427 681.222 600.778C683.44 607.686 686.939 613.794 689 620.778C691.085 627.842 691.513 635.173 692.056 642.5C692.448 647.801 693.521 656.558 695.556 661.5C697.533 666.304 698.653 674.095 702 678C704.806 681.274 704.479 685.351 706.5 688.944C711.668 698.132 700.446 681.031 699.222 679C694.033 670.39 691.967 658.727 690 649C688.012 639.171 684.895 630.469 680.556 621.5C677.579 615.348 674.34 609.455 670.556 603.778C669.73 602.539 667.446 600.81 667.056 599.444C666.58 597.78 667.012 605.635 667.056 606.667C667.54 618.058 672.426 628.088 676.5 638.5C678.533 643.696 681.811 648.215 683.778 653.222C687.787 663.427 689.592 672.847 691.778 683.778C692.469 687.235 694 690.496 694 694C694 697.029 693.51 700.555 694.056 703.556C694.774 707.509 697.583 708.116 698.778 711.222C700.36 715.337 702.259 718.835 704.556 722.444C707.447 726.988 708.618 731.833 711.222 736C712.561 738.142 724.312 737.688 726 736C730.297 731.703 725.296 722.462 723 718.444C720.318 713.752 718.42 707.72 716.944 702.556C716.555 701.193 713.31 697.647 715.556 698.056C717.558 698.42 722.217 702.662 720.778 701.222C718.336 698.781 717.549 695.88 716.944 692.556C716.248 688.725 717.84 691.679 719 694" stroke="#9A734F" stroke-width="19" stroke-linecap="round"/>
<path d="M499 6H365H257.5H150H16L150 304H203.75H257.5H311.25H365L499 6Z" fill="#F04141"/>
<path d="M16 305H499V331H365V358H150V331H16V305Z" fill="#F04141"/>
<path d="M150 331H499V305H16V331H150ZM150 331V358H365V331H150ZM150 304L16 6H150H257.5H365H499L365 304H311.25H257.5H203.75H150Z" stroke="black" stroke-width="12" stroke-linejoin="round"/>
<path d="M396.436 235.88L383.827 264.2C446.894 292.279 518.956 263.102 547.035 200.035C575.115 136.968 548.578 63.8927 485.511 35.8134L472.902 64.1333" stroke="black" stroke-width="12"/>
<path d="M473.516 57.8386C523.97 80.302 546.66 139.413 524.197 189.867C501.733 240.321 442.622 263.011 392.168 240.548" stroke="black" stroke-width="12"/>
<path d="M463 522C485.091 522 503 504.539 503 483C503 461.461 485.091 444 463 444" stroke="black" stroke-width="12"/>
<path d="M437 444H469" stroke="black" stroke-width="12" stroke-linejoin="round"/>
<path d="M434 522H469" stroke="black" stroke-width="12" stroke-linejoin="round"/>
<path d="M528 497C528 524.614 505.614 547 478 547" stroke="black" stroke-width="12"/>
<path d="M593 457.5C593 439.551 578.449 425 560.5 425C542.551 425 528 439.551 528 457.5" stroke="black" stroke-width="12"/>
<path d="M528 498V451" stroke="black" stroke-width="12" stroke-linejoin="round"/>
<path d="M446 547H482" stroke="black" stroke-width="12" stroke-linejoin="round"/>
<path fill-rule="evenodd" clip-rule="evenodd" d="M444.621 447.827C444.621 447.827 444.621 447.827 440 444C435.379 440.173 435.38 440.172 435.381 440.17L435.403 440.144L435.461 440.074C435.511 440.014 435.584 439.927 435.679 439.815C435.868 439.589 436.146 439.26 436.509 438.835C437.234 437.986 438.298 436.754 439.671 435.202C442.415 432.098 446.398 427.708 451.378 422.534C461.325 412.198 475.311 398.665 491.404 385.973C507.455 373.315 525.849 361.297 544.61 354.219C563.361 347.145 583.138 344.774 601.338 352.474C609.813 356.06 617.179 362.462 623.375 369.603C629.604 376.783 634.917 385.023 639.211 392.718C643.515 400.432 646.864 407.726 649.138 413.085C650.276 415.77 651.15 417.98 651.742 419.53C652.038 420.305 652.265 420.915 652.419 421.338C652.496 421.549 652.555 421.714 652.596 421.828L652.644 421.963L652.661 422.013L652.663 422.017C652.663 422.019 652.664 422.02 647 424L652.664 422.02C652.689 422.092 652.713 422.165 652.735 422.238L743.268 716.932C748.3 733.309 737.943 750.416 721.099 753.55C707.817 756.021 694.612 748.888 689.397 736.425L619.465 569.316C619.376 569.103 619.299 568.884 619.235 568.662L587.235 457.662L598.765 454.338L630.669 565.004L700.466 731.793C703.499 739.041 711.18 743.189 718.904 741.752C728.7 739.93 734.724 729.981 731.797 720.456L641.302 425.883L641.295 425.863C641.263 425.774 641.213 425.636 641.146 425.452C641.011 425.083 640.806 424.529 640.533 423.814C639.986 422.383 639.166 420.307 638.091 417.771C635.935 412.69 632.771 405.804 628.732 398.565C624.682 391.308 619.824 383.822 614.31 377.466C608.763 371.072 602.815 366.129 596.662 363.526C582.355 357.473 566.003 358.974 548.846 365.447C531.7 371.915 514.407 383.116 498.835 395.396C483.305 407.643 469.731 420.768 460.024 430.855C455.177 435.892 451.309 440.155 448.66 443.151C447.336 444.649 446.317 445.828 445.634 446.628C445.292 447.029 445.035 447.334 444.865 447.536C444.78 447.637 444.717 447.712 444.676 447.761L444.632 447.814L444.621 447.827Z" fill="black"/>
<circle cx="468" cy="483" r="5" fill="#D9D9D9" stroke="black" stroke-width="10"/>
<circle cx="583" cy="395" r="5" fill="#D9D9D9" stroke="black" stroke-width="10"/>
<circle cx="653" cy="547" r="5" fill="#D9D9D9" stroke="black" stroke-width="10"/>
<path d="M439 443.75L451.605 342.232C452.346 336.266 447.693 331 441.682 331H70.469C63.7715 331 57.3539 333.687 52.6549 338.46L26.7543 364.765C20.5298 371.087 25.0082 381.781 33.8799 381.781H47.3651C56.8053 381.781 64.6374 389.083 65.2982 398.5V398.5M439 443.75V522.125M439 443.75H75M75 443.75V522.125M75 443.75L67.4336 410M75 522.125L7.93736 835.538C1.2781 866.66 25.0044 896 56.8305 896H169.031H456.331C488.105 896 511.82 866.751 505.251 835.663L439 522.125M75 522.125H439M67.4336 410L65.2281 397.5L65.2982 398.5M67.4336 410L65.2982 398.5" stroke="black" stroke-width="12" stroke-linejoin="round"/>
<circle cx="256" cy="739" r="5" fill="#D9D9D9" stroke="black" stroke-width="10"/>
<circle cx="256" cy="639" r="5" fill="#D9D9D9" stroke="black" stroke-width="10"/>
<circle cx="256" cy="689" r="5" fill="#D9D9D9" stroke="black" stroke-width="10"/>
<circle cx="256" cy="789" r="5" fill="#D9D9D9" stroke="black" stroke-width="10"/>
</svg>
