<svg width="100%" height="100%" viewBox="0 0 230 293" fill="none" xmlns="http://www.w3.org/2000/svg">
<path d="M224 193C224 244.155 176.014 287 115 287C53.9861 287 6 244.155 6 193C6 167.602 20.2354 144.073 42.4379 114.247C46.9639 108.167 51.7976 101.853 56.8545 95.2475C74.6 72.0674 95.0935 45.2978 114.68 12.4587C135.03 50.6664 158.097 80.1162 177.673 105.109C180.444 108.647 183.145 112.095 185.758 115.465C208.713 145.077 224 167.749 224 193Z" fill="#79C9F7" stroke="black" stroke-width="12"/>
<path d="M152 254.21L154.178 253.662C175.265 248.353 191.221 231.084 194.849 209.644V209.644" stroke="#B1DDF7" stroke-width="11" stroke-linecap="round" stroke-linejoin="round"/>
</svg>
